<svg id="Capa_1" data-name="Capa 1" xmlns="http://www.w3.org/2000/svg" viewBox="0 0 477.07 506.44">
    <defs>
        <style>
            .cls-1{fill:#000000;}.cls-2{fill:#0955ff;}.cls-3{fill:none;stroke:#0955ff;stroke-miterlimit:10;stroke-width:6px;}
        </style>
    </defs>
    <polyline class="cls-1"
              points="139.02 73.26 196.09 114.63 192.97 175.82 232.93 207.03 238.55 150.22 271.01 170.2 267.89 253.24 244.79 265.1 154.89 192.05 159.88 123.37 139.02 113.39"/>
    <polygon class="cls-2"
             points="362.17 113.39 249.79 55.95 244.79 138.36 274.76 158.96 277.88 104.02 324.08 131.49 320.34 191.43 356.8 215.78 362.17 113.39"/>
    <polygon class="cls-3"
             points="272.89 3.5 373.41 84.67 373.41 235.75 473.93 299.44 460.81 450.53 340.32 502.97 232.93 418.06 121.8 486.39 3.17 394.34 19.41 253.24 136.78 198.29 139.28 64.69 272.89 3.5"/>
    <polyline class="cls-3" points="136.78 198.29 244.79 287.57 373.41 235.75"/>
    <line class="cls-3" x1="244.79" y1="287.58" x2="232.93" y2="418.06"/>
    <polygon class="cls-2"
             points="121.17 248.24 28.15 287.57 31.27 407.45 114.31 379.98 115.55 336.27 60.61 360 59.36 309.43 121.17 287.57 121.17 248.24"/>
    <polyline class="cls-1"
              points="153.38 466.97 152.39 431.17 218.57 404.95 218.57 277.59 133.66 314.42 133.66 348.76 186.73 327.85 186.1 381.85 121.17 407.45 121.8 486.39"/>
    <polyline class="cls-1"
              points="445.53 281.45 413.36 295.69 362.17 253.24 257.9 301.94 329.08 369.36 362.17 352.82 317.84 311.3 362.17 291.32 412.12 336.9 473.93 299.44"/>
    <polyline class="cls-2"
              points="267.27 423.68 303.48 404.33 362.17 449.9 405.87 427.12 347.18 386.22 388.39 369.36 463.19 423.1 354.68 486.39 271.01 427.88"/>
</svg>